<svg xmlns="http://www.w3.org/2000/svg" viewBox="24 -28 412 390" role="img" aria-labelledby="title" data-style-profile="textbook-monochrome-v1"><title id="title">Original Differential Stage</title><rect x="24" y="-28" width="412" height="390" fill="#fff"/><style>text{fill:#000;font-family:Georgia,'Times New Roman',serif;font-size:12px}path,polyline,line,circle{vector-effect:non-scaling-stroke}</style><g data-layer="formal"><g data-layer="routes"><polyline data-object-id="route-bias-feed" data-net-id="net-bias" points="225,80 225,120" fill="none" stroke="#000" stroke-width="1" stroke-linecap="square" stroke-linejoin="miter"/><polyline data-object-id="route-bias-left" data-net-id="net-bias" points="210,80 225,80" fill="none" stroke="#000" stroke-width="1" stroke-linecap="square" stroke-linejoin="miter"/><polyline data-object-id="route-bias-right" data-net-id="net-bias" points="225,80 270,80" fill="none" stroke="#000" stroke-width="1" stroke-linecap="square" stroke-linejoin="miter"/><polyline data-object-id="route-outn-bottom" data-net-id="net-voutn" points="285,140 285,170" fill="none" stroke="#000" stroke-width="1" stroke-linecap="square" stroke-linejoin="miter"/><polyline data-object-id="route-outn-port" data-net-id="net-voutn" points="285,140 390,140" fill="none" stroke="#000" stroke-width="1" stroke-linecap="square" stroke-linejoin="miter"/><polyline data-object-id="route-outn-top" data-net-id="net-voutn" points="315,110 285,110 285,140" fill="none" stroke="#000" stroke-width="1" stroke-linecap="square" stroke-linejoin="miter"/><polyline data-object-id="route-outp-bottom" data-net-id="net-voutp" points="165,140 165,170 195,170" fill="none" stroke="#000" stroke-width="1" stroke-linecap="square" stroke-linejoin="miter"/><polyline data-object-id="route-outp-port" data-net-id="net-voutp" points="70,140 165,140" fill="none" stroke="#000" stroke-width="1" stroke-linecap="square" stroke-linejoin="miter"/><polyline data-object-id="route-outp-top" data-net-id="net-voutp" points="165,110 165,140" fill="none" stroke="#000" stroke-width="1" stroke-linecap="square" stroke-linejoin="miter"/><polyline data-object-id="route-vdd-feed" data-net-id="net-vdd" points="225,20 225,50" fill="none" stroke="#000" stroke-width="1" stroke-linecap="square" stroke-linejoin="miter"/><polyline data-object-id="route-vdd-left" data-net-id="net-vdd" points="225,50 165,50" fill="none" stroke="#000" stroke-width="1" stroke-linecap="square" stroke-linejoin="miter"/><polyline data-object-id="route-vdd-right" data-net-id="net-vdd" points="225,50 315,50" fill="none" stroke="#000" stroke-width="1" stroke-linecap="square" stroke-linejoin="miter"/><polyline data-object-id="route-vinn" data-net-id="net-vinn" points="330,200 370,200" fill="none" stroke="#000" stroke-width="1" stroke-linecap="square" stroke-linejoin="miter"/><polyline data-object-id="route-vinp" data-net-id="net-vinp" points="80,200 150,200" fill="none" stroke="#000" stroke-width="1" stroke-linecap="square" stroke-linejoin="miter"/><polyline data-object-id="route-vss-feed" data-net-id="net-vss" points="255,230 255,270" fill="none" stroke="#000" stroke-width="1" stroke-linecap="square" stroke-linejoin="miter"/><polyline data-object-id="route-vss-left" data-net-id="net-vss" points="195,230 255,230" fill="none" stroke="#000" stroke-width="1" stroke-linecap="square" stroke-linejoin="miter"/><polyline data-object-id="route-vss-right" data-net-id="net-vss" points="285,230 255,230" fill="none" stroke="#000" stroke-width="1" stroke-linecap="square" stroke-linejoin="miter"/></g><g data-layer="junctions"><circle data-object-id="junction-bias" cx="225" cy="80" r="1.75" fill="#000"/><circle data-object-id="junction-outn" cx="285" cy="140" r="1.75" fill="#000"/><circle data-object-id="junction-outp" cx="165" cy="140" r="1.75" fill="#000"/><circle data-object-id="junction-vdd" cx="225" cy="50" r="1.75" fill="#000"/><circle data-object-id="junction-vss" cx="255" cy="230" r="1.75" fill="#000"/></g><g data-layer="symbols"><g data-object-id="M1" data-symbol-id="nmos"><g transform="translate(180 200) rotate(0)"><g fill="none" stroke="#000" stroke-width="1" stroke-linecap="square" stroke-linejoin="miter"><line x1="-30" y1="0" x2="-10" y2="0"/><line x1="-10" y1="-18" x2="-10" y2="18"/><line x1="-3" y1="-16" x2="-3" y2="16"/><line x1="-3" y1="-12" x2="15" y2="-12"/><line x1="15" y1="-30" x2="15" y2="-12"/><line x1="-3" y1="12" x2="15" y2="12"/><line x1="15" y1="12" x2="15" y2="30"/></g></g></g><g data-object-id="M2" data-symbol-id="nmos"><g transform="translate(300 200) rotate(0) scale(-1 1)"><g fill="none" stroke="#000" stroke-width="1" stroke-linecap="square" stroke-linejoin="miter"><line x1="-30" y1="0" x2="-10" y2="0"/><line x1="-10" y1="-18" x2="-10" y2="18"/><line x1="-3" y1="-16" x2="-3" y2="16"/><line x1="-3" y1="-12" x2="15" y2="-12"/><line x1="15" y1="-30" x2="15" y2="-12"/><line x1="-3" y1="12" x2="15" y2="12"/><line x1="15" y1="12" x2="15" y2="30"/></g></g></g><g data-object-id="M3" data-symbol-id="pmos"><g transform="translate(180 80) rotate(180)"><g fill="none" stroke="#000" stroke-width="1" stroke-linecap="square" stroke-linejoin="miter"><line x1="-30" y1="0" x2="-10" y2="0"/><line x1="-10" y1="-18" x2="-10" y2="18"/><line x1="-3" y1="-16" x2="-3" y2="16"/><line x1="-3" y1="-12" x2="15" y2="-12"/><line x1="15" y1="-30" x2="15" y2="-12"/><line x1="-3" y1="12" x2="15" y2="12"/><line x1="15" y1="12" x2="15" y2="30"/><circle cx="-6" cy="0" r="3"/></g></g></g><g data-object-id="M4" data-symbol-id="pmos"><g transform="translate(300 80) rotate(180) scale(-1 1)"><g fill="none" stroke="#000" stroke-width="1" stroke-linecap="square" stroke-linejoin="miter"><line x1="-30" y1="0" x2="-10" y2="0"/><line x1="-10" y1="-18" x2="-10" y2="18"/><line x1="-3" y1="-16" x2="-3" y2="16"/><line x1="-3" y1="-12" x2="15" y2="-12"/><line x1="15" y1="-30" x2="15" y2="-12"/><line x1="-3" y1="12" x2="15" y2="12"/><line x1="15" y1="12" x2="15" y2="30"/><circle cx="-6" cy="0" r="3"/></g></g></g></g><g data-layer="annotations"><g data-object-id="annotation-tail" data-kind="current" data-attached-object-id="net-vss"><g transform="rotate(90 255 260)"><line x1="243" y1="260" x2="265" y2="260" stroke="#000" stroke-width="0.8"/><polygon points="267,260 260,256 260,264" fill="#000"/></g><text x="270" y="264" text-anchor="start">I_tail</text></g><text data-object-id="caption" data-kind="figure-caption" x="225" y="322" text-anchor="middle" transform="rotate(0 225 322)" font-style="italic">Original matched differential stage</text><text data-object-id="label-bias" data-kind="net-label" data-attached-object-id="port-bias" x="225" y="132" text-anchor="middle" transform="rotate(0 225 132)">VBIAS</text><text data-object-id="label-m1" data-kind="instance-label" data-attached-object-id="M1" x="180" y="246" text-anchor="middle" transform="rotate(0 180 246)">M1</text><text data-object-id="label-m2" data-kind="instance-label" data-attached-object-id="M2" x="300" y="246" text-anchor="middle" transform="rotate(0 300 246)">M2</text><text data-object-id="label-m3" data-kind="instance-label" data-attached-object-id="M3" x="145" y="76" text-anchor="end" transform="rotate(0 145 76)">M3</text><text data-object-id="label-m4" data-kind="instance-label" data-attached-object-id="M4" x="335" y="76" text-anchor="start" transform="rotate(0 335 76)">M4</text><text data-object-id="label-outn" data-kind="net-label" data-attached-object-id="port-voutn" x="396" y="135" text-anchor="start" transform="rotate(0 396 135)">VOUT-</text><text data-object-id="label-outp" data-kind="net-label" data-attached-object-id="port-voutp" x="64" y="135" text-anchor="end" transform="rotate(0 64 135)">VOUT+</text><text data-object-id="label-vdd" data-kind="power-label" data-attached-object-id="port-vdd" x="225" y="12" text-anchor="middle" transform="rotate(0 225 12)" font-weight="bold">VDD</text><text data-object-id="label-vinn" data-kind="net-label" data-attached-object-id="port-vinn" x="376" y="195" text-anchor="start" transform="rotate(0 376 195)">VIN-</text><text data-object-id="label-vinp" data-kind="net-label" data-attached-object-id="port-vinp" x="74" y="195" text-anchor="end" transform="rotate(0 74 195)">VIN+</text><text data-object-id="label-vss" data-kind="power-label" data-attached-object-id="port-vss" x="255" y="292" text-anchor="middle" transform="rotate(0 255 292)" font-weight="bold">VSS</text></g></g></svg>
