<svg xmlns="http://www.w3.org/2000/svg" viewBox="74 136 227.2 199" role="img" aria-labelledby="title" data-style-profile="razavi-textbook-v1"><title id="title">Callout</title><rect x="74" y="136" width="227.2" height="199" fill="#fff"/><style>text{fill:#000;font-family:'DejaVu Sans',Arial,'Helvetica Neue',Helvetica,sans-serif;font-size:15.116px}</style><g data-layer="formal"><g data-layer="routes"></g><g data-layer="ports"></g><g data-layer="junctions"></g><g data-layer="symbols"><g data-object-id="M1" data-symbol-id="nmos"><g transform="translate(200 200) rotate(0)"><g fill="none" stroke="#000" stroke-width="1.6" stroke-linecap="butt" stroke-linejoin="miter" stroke-miterlimit="4"><polyline points="-4.244186,-6.976744 10,-6.976744 10,-20" stroke-width="1.6" stroke-linecap="butt" stroke-linejoin="miter"/><polygon points="-11.802326,-9.593023 -11.802326,9.593023 -8.895349,9.593023 -8.895349,-9.593023" fill="#000" stroke="none"/><polygon points="-6.569767,-12.5 -6.569767,12.5 -3.662791,12.5 -3.662791,-12.5" fill="#000" stroke="none"/><line x1="-8.895349" y1="0" x2="-20" y2="0" stroke-width="1.6" stroke-linecap="butt" stroke-linejoin="miter"/><polyline points="-3.662791,6.976744 10,6.976744 10,20" stroke-width="1.6" stroke-linecap="butt" stroke-linejoin="miter"/><polygon points="10.581395,6.976744 1.27907,2.906977 1.27907,11.046512" fill="#000" stroke="none"/></g></g></g></g><g data-layer="annotations"><text data-object-id="label-m1" data-kind="instance-label" data-attached-object-id="M1" x="224" y="190" text-anchor="middle" transform="rotate(0 224 190)" font-size="15.116"><tspan data-text-run="base" style="font-style:italic;font-weight:700">M</tspan><tspan data-text-run="subscript" dx="0.046em" font-size="76%" baseline-shift="-0.28em" style="font-style:normal;font-weight:700">1</tspan></text></g><g data-layer="drafting"><text data-object-id="note-feedback" data-kind="draft-text" x="120" y="240" text-anchor="start" transform="rotate(0 120 240)" font-size="15.116" font-weight="normal" font-style="normal">feedback</text><text data-object-id="caption-figure" data-kind="draft-text" x="230" y="280" text-anchor="middle" transform="rotate(0 230 280)" font-size="14" font-weight="normal" font-style="normal">Fig. 1</text></g></g></svg>
