<svg xmlns="http://www.w3.org/2000/svg" viewBox="27 27 906 1286" role="img" aria-labelledby="title" data-style-profile="razavi-textbook-v1"><title id="title">SKY130 6-bit Switched-Capacitor DAC (route-graph)</title><rect x="27" y="27" width="906" height="1286" fill="#fff"/><style>text{fill:#202020;font-family:Arial,'Helvetica Neue',Helvetica,sans-serif;font-size:16px}</style><g data-layer="formal"><g data-layer="routes"><polyline data-object-id="route-net-2363c8edceb2afb0-1" data-net-id="net-2363c8edceb2afb0" points="180,860 160,860 160,900 520,900 520,880" fill="none" stroke="#202020" stroke-width="1.6" stroke-linecap="butt" stroke-linejoin="miter" stroke-miterlimit="4"/><polyline data-object-id="route-net-2363c9edceb2b163-1" data-net-id="net-2363c9edceb2b163" points="180,1020 160,1020 160,1060 520,1060 520,1040" fill="none" stroke="#202020" stroke-width="1.6" stroke-linecap="butt" stroke-linejoin="miter" stroke-miterlimit="4"/><polyline data-object-id="route-net-2363ccedceb2b67c-1" data-net-id="net-2363ccedceb2b67c" points="180,220 160,220 160,260 520,260 520,240" fill="none" stroke="#202020" stroke-width="1.6" stroke-linecap="butt" stroke-linejoin="miter" stroke-miterlimit="4"/><polyline data-object-id="route-net-2363cdedceb2b82f-1" data-net-id="net-2363cdedceb2b82f" points="180,380 160,380 160,420 520,420 520,400" fill="none" stroke="#202020" stroke-width="1.6" stroke-linecap="butt" stroke-linejoin="miter" stroke-miterlimit="4"/><polyline data-object-id="route-net-2363ceedceb2b9e2-1" data-net-id="net-2363ceedceb2b9e2" points="180,540 160,540 160,580 520,580 520,560" fill="none" stroke="#202020" stroke-width="1.6" stroke-linecap="butt" stroke-linejoin="miter" stroke-miterlimit="4"/><polyline data-object-id="route-net-2363cfedceb2bb95-1" data-net-id="net-2363cfedceb2bb95" points="180,700 160,700 160,740 520,740 520,720" fill="none" stroke="#202020" stroke-width="1.6" stroke-linecap="butt" stroke-linejoin="miter" stroke-miterlimit="4"/><polyline data-object-id="route-net-5d241e46ea1603fd-1" data-net-id="net-5d241e46ea1603fd" points="520,200 520,180 600,180 600,200" fill="none" stroke="#202020" stroke-width="1.6" stroke-linecap="butt" stroke-linejoin="miter" stroke-miterlimit="4"/><polyline data-object-id="route-net-5d241e46ea1603fd-10" data-net-id="net-5d241e46ea1603fd" points="600,680 600,840" fill="none" stroke="#202020" stroke-width="1.6" stroke-linecap="butt" stroke-linejoin="miter" stroke-miterlimit="4"/><polyline data-object-id="route-net-5d241e46ea1603fd-11" data-net-id="net-5d241e46ea1603fd" points="600,840 600,1000" fill="none" stroke="#202020" stroke-width="1.6" stroke-linecap="butt" stroke-linejoin="miter" stroke-miterlimit="4"/><polyline data-object-id="route-net-5d241e46ea1603fd-12" data-net-id="net-5d241e46ea1603fd" points="790,620 790,600 600,600 600,680" fill="none" stroke="#202020" stroke-width="1.6" stroke-linecap="butt" stroke-linejoin="miter" stroke-miterlimit="4"/><polyline data-object-id="route-net-5d241e46ea1603fd-13" data-net-id="net-5d241e46ea1603fd" points="600,680 900,680 900,640" fill="none" stroke="#202020" stroke-width="1.6" stroke-linecap="butt" stroke-linejoin="miter" stroke-miterlimit="4"/><polyline data-object-id="route-net-5d241e46ea1603fd-2" data-net-id="net-5d241e46ea1603fd" points="520,360 520,340 600,340 600,360" fill="none" stroke="#202020" stroke-width="1.6" stroke-linecap="butt" stroke-linejoin="miter" stroke-miterlimit="4"/><polyline data-object-id="route-net-5d241e46ea1603fd-3" data-net-id="net-5d241e46ea1603fd" points="520,520 520,500 600,500 600,520" fill="none" stroke="#202020" stroke-width="1.6" stroke-linecap="butt" stroke-linejoin="miter" stroke-miterlimit="4"/><polyline data-object-id="route-net-5d241e46ea1603fd-4" data-net-id="net-5d241e46ea1603fd" points="520,680 520,660 600,660 600,680" fill="none" stroke="#202020" stroke-width="1.6" stroke-linecap="butt" stroke-linejoin="miter" stroke-miterlimit="4"/><polyline data-object-id="route-net-5d241e46ea1603fd-5" data-net-id="net-5d241e46ea1603fd" points="520,840 520,820 600,820 600,840" fill="none" stroke="#202020" stroke-width="1.6" stroke-linecap="butt" stroke-linejoin="miter" stroke-miterlimit="4"/><polyline data-object-id="route-net-5d241e46ea1603fd-6" data-net-id="net-5d241e46ea1603fd" points="520,1000 520,980 600,980 600,1000" fill="none" stroke="#202020" stroke-width="1.6" stroke-linecap="butt" stroke-linejoin="miter" stroke-miterlimit="4"/><polyline data-object-id="route-net-5d241e46ea1603fd-7" data-net-id="net-5d241e46ea1603fd" points="600,200 600,360" fill="none" stroke="#202020" stroke-width="1.6" stroke-linecap="butt" stroke-linejoin="miter" stroke-miterlimit="4"/><polyline data-object-id="route-net-5d241e46ea1603fd-8" data-net-id="net-5d241e46ea1603fd" points="600,360 600,520" fill="none" stroke="#202020" stroke-width="1.6" stroke-linecap="butt" stroke-linejoin="miter" stroke-miterlimit="4"/><polyline data-object-id="route-net-5d241e46ea1603fd-9" data-net-id="net-5d241e46ea1603fd" points="600,520 600,680" fill="none" stroke="#202020" stroke-width="1.6" stroke-linecap="butt" stroke-linejoin="miter" stroke-miterlimit="4"/><polyline data-object-id="route-net-82ae603d9b60fcc6-1" data-net-id="net-82ae603d9b60fcc6" points="260,200 340,200" fill="none" stroke="#202020" stroke-width="1.6" stroke-linecap="butt" stroke-linejoin="miter" stroke-miterlimit="4"/><polyline data-object-id="route-net-82ae603d9b60fcc6-10" data-net-id="net-82ae603d9b60fcc6" points="340,680 340,840" fill="none" stroke="#202020" stroke-width="1.6" stroke-linecap="butt" stroke-linejoin="miter" stroke-miterlimit="4"/><polyline data-object-id="route-net-82ae603d9b60fcc6-11" data-net-id="net-82ae603d9b60fcc6" points="340,840 340,1000" fill="none" stroke="#202020" stroke-width="1.6" stroke-linecap="butt" stroke-linejoin="miter" stroke-miterlimit="4"/><polyline data-object-id="route-net-82ae603d9b60fcc6-12" data-net-id="net-82ae603d9b60fcc6" points="340,60 340,200" fill="none" stroke="#202020" stroke-width="1.6" stroke-linecap="butt" stroke-linejoin="miter" stroke-miterlimit="4"/><polyline data-object-id="route-net-82ae603d9b60fcc6-2" data-net-id="net-82ae603d9b60fcc6" points="260,360 340,360" fill="none" stroke="#202020" stroke-width="1.6" stroke-linecap="butt" stroke-linejoin="miter" stroke-miterlimit="4"/><polyline data-object-id="route-net-82ae603d9b60fcc6-3" data-net-id="net-82ae603d9b60fcc6" points="260,520 340,520" fill="none" stroke="#202020" stroke-width="1.6" stroke-linecap="butt" stroke-linejoin="miter" stroke-miterlimit="4"/><polyline data-object-id="route-net-82ae603d9b60fcc6-4" data-net-id="net-82ae603d9b60fcc6" points="260,680 340,680" fill="none" stroke="#202020" stroke-width="1.6" stroke-linecap="butt" stroke-linejoin="miter" stroke-miterlimit="4"/><polyline data-object-id="route-net-82ae603d9b60fcc6-5" data-net-id="net-82ae603d9b60fcc6" points="260,840 340,840" fill="none" stroke="#202020" stroke-width="1.6" stroke-linecap="butt" stroke-linejoin="miter" stroke-miterlimit="4"/><polyline data-object-id="route-net-82ae603d9b60fcc6-6" data-net-id="net-82ae603d9b60fcc6" points="260,1000 340,1000" fill="none" stroke="#202020" stroke-width="1.6" stroke-linecap="butt" stroke-linejoin="miter" stroke-miterlimit="4"/><polyline data-object-id="route-net-82ae603d9b60fcc6-7" data-net-id="net-82ae603d9b60fcc6" points="340,200 340,360" fill="none" stroke="#202020" stroke-width="1.6" stroke-linecap="butt" stroke-linejoin="miter" stroke-miterlimit="4"/><polyline data-object-id="route-net-82ae603d9b60fcc6-8" data-net-id="net-82ae603d9b60fcc6" points="340,360 340,520" fill="none" stroke="#202020" stroke-width="1.6" stroke-linecap="butt" stroke-linejoin="miter" stroke-miterlimit="4"/><polyline data-object-id="route-net-82ae603d9b60fcc6-9" data-net-id="net-82ae603d9b60fcc6" points="340,520 340,680" fill="none" stroke="#202020" stroke-width="1.6" stroke-linecap="butt" stroke-linejoin="miter" stroke-miterlimit="4"/><polyline data-object-id="route-net-82ef833d9b98cf34-1" data-net-id="net-82ef833d9b98cf34" points="260,180 320,180" fill="none" stroke="#202020" stroke-width="1.6" stroke-linecap="butt" stroke-linejoin="miter" stroke-miterlimit="4"/><polyline data-object-id="route-net-82ef833d9b98cf34-11" data-net-id="net-82ef833d9b98cf34" points="260,980 320,980" fill="none" stroke="#202020" stroke-width="1.6" stroke-linecap="butt" stroke-linejoin="miter" stroke-miterlimit="4"/><polyline data-object-id="route-net-82ef833d9b98cf34-13" data-net-id="net-82ef833d9b98cf34" points="790,660 790,680 320,680 320,660" fill="none" stroke="#202020" stroke-width="1.6" stroke-linecap="butt" stroke-linejoin="miter" stroke-miterlimit="4"/><polyline data-object-id="route-net-82ef833d9b98cf34-14" data-net-id="net-82ef833d9b98cf34" points="800,640 820,640 820,660 320,660" fill="none" stroke="#202020" stroke-width="1.6" stroke-linecap="butt" stroke-linejoin="miter" stroke-miterlimit="4"/><polyline data-object-id="route-net-82ef833d9b98cf34-15" data-net-id="net-82ef833d9b98cf34" points="520,1200 520,1220 320,1220 320,660" fill="none" stroke="#202020" stroke-width="1.6" stroke-linecap="butt" stroke-linejoin="miter" stroke-miterlimit="4"/><polyline data-object-id="route-net-82ef833d9b98cf34-16" data-net-id="net-82ef833d9b98cf34" points="340,1280 320,1280 320,660" fill="none" stroke="#202020" stroke-width="1.6" stroke-linecap="butt" stroke-linejoin="miter" stroke-miterlimit="4"/><polyline data-object-id="route-net-82ef833d9b98cf34-3" data-net-id="net-82ef833d9b98cf34" points="260,340 320,340" fill="none" stroke="#202020" stroke-width="1.6" stroke-linecap="butt" stroke-linejoin="miter" stroke-miterlimit="4"/><polyline data-object-id="route-net-82ef833d9b98cf34-5" data-net-id="net-82ef833d9b98cf34" points="260,500 320,500" fill="none" stroke="#202020" stroke-width="1.6" stroke-linecap="butt" stroke-linejoin="miter" stroke-miterlimit="4"/><polyline data-object-id="route-net-82ef833d9b98cf34-7" data-net-id="net-82ef833d9b98cf34" points="260,660 320,660" fill="none" stroke="#202020" stroke-width="1.6" stroke-linecap="butt" stroke-linejoin="miter" stroke-miterlimit="4"/><polyline data-object-id="route-net-82ef833d9b98cf34-9" data-net-id="net-82ef833d9b98cf34" points="260,820 320,820" fill="none" stroke="#202020" stroke-width="1.6" stroke-linecap="butt" stroke-linejoin="miter" stroke-miterlimit="4"/><polyline data-object-id="route-net-b778eaaff63d68d5-1" data-net-id="net-b778eaaff63d68d5" points="760,640 740,640 740,1180 60,1180" fill="none" stroke="#202020" stroke-width="1.6" stroke-linecap="butt" stroke-linejoin="miter" stroke-miterlimit="4"/><polyline data-object-id="route-net-b9d14f5a12d36870-1" data-net-id="net-b9d14f5a12d36870" points="180,340 160,340 160,360 60,360" fill="none" stroke="#202020" stroke-width="1.6" stroke-linecap="butt" stroke-linejoin="miter" stroke-miterlimit="4"/><polyline data-object-id="route-net-b9d1505a12d36a23-1" data-net-id="net-b9d1505a12d36a23" points="180,180 160,180 160,200 60,200" fill="none" stroke="#202020" stroke-width="1.6" stroke-linecap="butt" stroke-linejoin="miter" stroke-miterlimit="4"/><polyline data-object-id="route-net-b9d1515a12d36bd6-1" data-net-id="net-b9d1515a12d36bd6" points="180,660 160,660 160,680 60,680" fill="none" stroke="#202020" stroke-width="1.6" stroke-linecap="butt" stroke-linejoin="miter" stroke-miterlimit="4"/><polyline data-object-id="route-net-b9d1525a12d36d89-1" data-net-id="net-b9d1525a12d36d89" points="180,500 160,500 160,520 60,520" fill="none" stroke="#202020" stroke-width="1.6" stroke-linecap="butt" stroke-linejoin="miter" stroke-miterlimit="4"/><polyline data-object-id="route-net-b9d1535a12d36f3c-1" data-net-id="net-b9d1535a12d36f3c" points="180,980 160,980 160,1000 60,1000" fill="none" stroke="#202020" stroke-width="1.6" stroke-linecap="butt" stroke-linejoin="miter" stroke-miterlimit="4"/><polyline data-object-id="route-net-b9d1545a12d370ef-1" data-net-id="net-b9d1545a12d370ef" points="180,820 160,820 160,840 60,840" fill="none" stroke="#202020" stroke-width="1.6" stroke-linecap="butt" stroke-linejoin="miter" stroke-miterlimit="4"/></g><g data-layer="ports"><circle data-object-id="port-08e81d5c21afcace" data-node-kind="port-origin" cx="60" cy="200" r="3" fill="#202020"/><circle data-object-id="port-0b4be6134b2ba800" data-node-kind="port-origin" cx="60" cy="360" r="3" fill="#202020"/><circle data-object-id="port-0d78f712a5866fb3" data-node-kind="port-origin" cx="900" cy="640" r="3" fill="#202020"/><circle data-object-id="port-35c2e7b5e158ae26" data-node-kind="port-origin" cx="60" cy="840" r="3" fill="#202020"/><circle data-object-id="port-57827bce9cde161d" data-node-kind="port-origin" cx="340" cy="1280" r="3" fill="#202020"/><circle data-object-id="port-59922b45e2cad116" data-node-kind="port-origin" cx="60" cy="520" r="3" fill="#202020"/><circle data-object-id="port-875ab2787f258a6f" data-node-kind="port-origin" cx="340" cy="60" r="3" fill="#202020"/><circle data-object-id="port-bb9aba18b0111548" data-node-kind="port-origin" cx="60" cy="1000" r="3" fill="#202020"/><circle data-object-id="port-c093b63f60d8af6c" data-node-kind="port-origin" cx="60" cy="680" r="3" fill="#202020"/><circle data-object-id="port-d1a18d9c3aac42b7" data-node-kind="port-origin" cx="60" cy="1180" r="3" fill="#202020"/></g><g data-layer="junctions"><circle data-object-id="vdd-tap-0" cx="340" cy="200" r="3" fill="#202020"/><circle data-object-id="vdd-tap-1" cx="340" cy="360" r="3" fill="#202020"/><circle data-object-id="vdd-tap-2" cx="340" cy="520" r="3" fill="#202020"/><circle data-object-id="vdd-tap-3" cx="340" cy="680" r="3" fill="#202020"/><circle data-object-id="vdd-tap-4" cx="340" cy="840" r="3" fill="#202020"/><circle data-object-id="vdd-tap-5" cx="340" cy="1000" r="3" fill="#202020"/><circle data-object-id="vout-tap-0" cx="600" cy="200" r="3" fill="#202020"/><circle data-object-id="vout-tap-1" cx="600" cy="360" r="3" fill="#202020"/><circle data-object-id="vout-tap-2" cx="600" cy="520" r="3" fill="#202020"/><circle data-object-id="vout-tap-3" cx="600" cy="680" r="3" fill="#202020"/><circle data-object-id="vout-tap-4" cx="600" cy="840" r="3" fill="#202020"/><circle data-object-id="vout-tap-5" cx="600" cy="1000" r="3" fill="#202020"/><circle data-object-id="vss-j-0" cx="320" cy="180" r="3" fill="#202020"/><circle data-object-id="vss-j-1" cx="320" cy="340" r="3" fill="#202020"/><circle data-object-id="vss-j-2" cx="320" cy="500" r="3" fill="#202020"/><circle data-object-id="vss-j-3" cx="320" cy="660" r="3" fill="#202020"/><circle data-object-id="vss-j-4" cx="320" cy="820" r="3" fill="#202020"/><circle data-object-id="vss-j-5" cx="320" cy="980" r="3" fill="#202020"/><circle data-object-id="vss-j-reset" cx="320" cy="660" r="3" fill="#202020"/></g><g data-layer="symbols"><g data-object-id="C0" data-symbol-id="capacitor"><g transform="translate(520 220) rotate(0)"><g fill="none" stroke="#202020" stroke-width="1.6" stroke-linecap="butt" stroke-linejoin="miter" stroke-miterlimit="4"><line x1="7.086614" y1="-3.11811" x2="-7.086614" y2="-3.11811" stroke-width="2.16" stroke-linecap="butt" stroke-linejoin="miter"/><line x1="7.086614" y1="3.11811" x2="-7.086614" y2="3.11811" stroke-width="2.16" stroke-linecap="butt" stroke-linejoin="miter"/><line x1="0" y1="-3.11811" x2="0" y2="-20" stroke-width="1.2" stroke-linecap="butt" stroke-linejoin="miter"/><line x1="0" y1="3.401575" x2="0" y2="20" stroke-width="1.2" stroke-linecap="butt" stroke-linejoin="miter"/></g></g></g><g data-object-id="C1" data-symbol-id="capacitor"><g transform="translate(520 380) rotate(0)"><g fill="none" stroke="#202020" stroke-width="1.6" stroke-linecap="butt" stroke-linejoin="miter" stroke-miterlimit="4"><line x1="7.086614" y1="-3.11811" x2="-7.086614" y2="-3.11811" stroke-width="2.16" stroke-linecap="butt" stroke-linejoin="miter"/><line x1="7.086614" y1="3.11811" x2="-7.086614" y2="3.11811" stroke-width="2.16" stroke-linecap="butt" stroke-linejoin="miter"/><line x1="0" y1="-3.11811" x2="0" y2="-20" stroke-width="1.2" stroke-linecap="butt" stroke-linejoin="miter"/><line x1="0" y1="3.401575" x2="0" y2="20" stroke-width="1.2" stroke-linecap="butt" stroke-linejoin="miter"/></g></g></g><g data-object-id="C2" data-symbol-id="capacitor"><g transform="translate(520 540) rotate(0)"><g fill="none" stroke="#202020" stroke-width="1.6" stroke-linecap="butt" stroke-linejoin="miter" stroke-miterlimit="4"><line x1="7.086614" y1="-3.11811" x2="-7.086614" y2="-3.11811" stroke-width="2.16" stroke-linecap="butt" stroke-linejoin="miter"/><line x1="7.086614" y1="3.11811" x2="-7.086614" y2="3.11811" stroke-width="2.16" stroke-linecap="butt" stroke-linejoin="miter"/><line x1="0" y1="-3.11811" x2="0" y2="-20" stroke-width="1.2" stroke-linecap="butt" stroke-linejoin="miter"/><line x1="0" y1="3.401575" x2="0" y2="20" stroke-width="1.2" stroke-linecap="butt" stroke-linejoin="miter"/></g></g></g><g data-object-id="C3" data-symbol-id="capacitor"><g transform="translate(520 700) rotate(0)"><g fill="none" stroke="#202020" stroke-width="1.6" stroke-linecap="butt" stroke-linejoin="miter" stroke-miterlimit="4"><line x1="7.086614" y1="-3.11811" x2="-7.086614" y2="-3.11811" stroke-width="2.16" stroke-linecap="butt" stroke-linejoin="miter"/><line x1="7.086614" y1="3.11811" x2="-7.086614" y2="3.11811" stroke-width="2.16" stroke-linecap="butt" stroke-linejoin="miter"/><line x1="0" y1="-3.11811" x2="0" y2="-20" stroke-width="1.2" stroke-linecap="butt" stroke-linejoin="miter"/><line x1="0" y1="3.401575" x2="0" y2="20" stroke-width="1.2" stroke-linecap="butt" stroke-linejoin="miter"/></g></g></g><g data-object-id="C4" data-symbol-id="capacitor"><g transform="translate(520 860) rotate(0)"><g fill="none" stroke="#202020" stroke-width="1.6" stroke-linecap="butt" stroke-linejoin="miter" stroke-miterlimit="4"><line x1="7.086614" y1="-3.11811" x2="-7.086614" y2="-3.11811" stroke-width="2.16" stroke-linecap="butt" stroke-linejoin="miter"/><line x1="7.086614" y1="3.11811" x2="-7.086614" y2="3.11811" stroke-width="2.16" stroke-linecap="butt" stroke-linejoin="miter"/><line x1="0" y1="-3.11811" x2="0" y2="-20" stroke-width="1.2" stroke-linecap="butt" stroke-linejoin="miter"/><line x1="0" y1="3.401575" x2="0" y2="20" stroke-width="1.2" stroke-linecap="butt" stroke-linejoin="miter"/></g></g></g><g data-object-id="C5" data-symbol-id="capacitor"><g transform="translate(520 1020) rotate(0)"><g fill="none" stroke="#202020" stroke-width="1.6" stroke-linecap="butt" stroke-linejoin="miter" stroke-miterlimit="4"><line x1="7.086614" y1="-3.11811" x2="-7.086614" y2="-3.11811" stroke-width="2.16" stroke-linecap="butt" stroke-linejoin="miter"/><line x1="7.086614" y1="3.11811" x2="-7.086614" y2="3.11811" stroke-width="2.16" stroke-linecap="butt" stroke-linejoin="miter"/><line x1="0" y1="-3.11811" x2="0" y2="-20" stroke-width="1.2" stroke-linecap="butt" stroke-linejoin="miter"/><line x1="0" y1="3.401575" x2="0" y2="20" stroke-width="1.2" stroke-linecap="butt" stroke-linejoin="miter"/></g></g></g><g data-object-id="CDUMMY" data-symbol-id="capacitor"><g transform="translate(520 1180) rotate(0)"><g fill="none" stroke="#202020" stroke-width="1.6" stroke-linecap="butt" stroke-linejoin="miter" stroke-miterlimit="4"><line x1="7.086614" y1="-3.11811" x2="-7.086614" y2="-3.11811" stroke-width="2.16" stroke-linecap="butt" stroke-linejoin="miter"/><line x1="7.086614" y1="3.11811" x2="-7.086614" y2="3.11811" stroke-width="2.16" stroke-linecap="butt" stroke-linejoin="miter"/><line x1="0" y1="-3.11811" x2="0" y2="-20" stroke-width="1.2" stroke-linecap="butt" stroke-linejoin="miter"/><line x1="0" y1="3.401575" x2="0" y2="20" stroke-width="1.2" stroke-linecap="butt" stroke-linejoin="miter"/></g></g></g><g data-object-id="XRESET" data-symbol-id="nmos"><g transform="translate(780 640) rotate(0)"><g fill="none" stroke="#202020" stroke-width="1.6" stroke-linecap="butt" stroke-linejoin="miter" stroke-miterlimit="4"><line x1="-5.754549" y1="-10.629921" x2="10" y2="-10.629921" stroke-width="1.2" stroke-linecap="round" stroke-linejoin="round"/><line x1="-5.944882" y1="-15.944882" x2="-5.944882" y2="15.944882" stroke-width="2.16" stroke-linecap="round" stroke-linejoin="round"/><line x1="-11.259843" y1="-10.629921" x2="-11.259843" y2="10.629921" stroke-width="2.16" stroke-linecap="round" stroke-linejoin="round"/><line x1="10" y1="10.629921" x2="10" y2="20" stroke-width="1.2" stroke-linecap="round" stroke-linejoin="round"/><line x1="-11.259843" y1="0" x2="-20" y2="0" stroke-width="1.2" stroke-linecap="round" stroke-linejoin="round"/><line x1="10" y1="-10.913386" x2="10" y2="-20" stroke-width="1.2" stroke-linecap="round" stroke-linejoin="round"/><line x1="-5.564216" y1="10.629921" x2="1" y2="10.629921" stroke-width="1.2" stroke-linecap="round" stroke-linejoin="round"/><polygon points="10,10.629921 1,13.629921 1,7.629921" fill="#202020" stroke="none"/></g></g></g><g data-object-id="XU0" data-symbol-id="hierarchical-symbol-82822626bf0850db"><g transform="translate(220 200) rotate(0)"><g fill="none" stroke="#202020" stroke-width="1.6" stroke-linecap="butt" stroke-linejoin="miter" stroke-miterlimit="4"><polyline points="-25,-35 25,-35 25,35 -25,35 -25,-35"/><line x1="-40" y1="-20" x2="-25" y2="-20"/><line x1="-40" y1="0" x2="-25" y2="0"/><line x1="-40" y1="20" x2="-25" y2="20"/><line x1="40" y1="-20" x2="25" y2="-20"/><line x1="40" y1="0" x2="25" y2="0"/></g></g><text data-pin-name="bit" x="199" y="184" text-anchor="start" font-size="16">bit</text><text data-pin-name="nbit" x="199" y="204" text-anchor="start" font-size="16">nbit</text><text data-pin-name="bot" x="199" y="224" text-anchor="start" font-size="16">bot</text><text data-pin-name="vss" x="241" y="184" text-anchor="end" font-size="16">vss</text><text data-pin-name="vdd" x="241" y="204" text-anchor="end" font-size="16">vdd</text></g><g data-object-id="XU1" data-symbol-id="hierarchical-symbol-82822626bf0850db"><g transform="translate(220 360) rotate(0)"><g fill="none" stroke="#202020" stroke-width="1.6" stroke-linecap="butt" stroke-linejoin="miter" stroke-miterlimit="4"><polyline points="-25,-35 25,-35 25,35 -25,35 -25,-35"/><line x1="-40" y1="-20" x2="-25" y2="-20"/><line x1="-40" y1="0" x2="-25" y2="0"/><line x1="-40" y1="20" x2="-25" y2="20"/><line x1="40" y1="-20" x2="25" y2="-20"/><line x1="40" y1="0" x2="25" y2="0"/></g></g><text data-pin-name="bit" x="199" y="344" text-anchor="start" font-size="16">bit</text><text data-pin-name="nbit" x="199" y="364" text-anchor="start" font-size="16">nbit</text><text data-pin-name="bot" x="199" y="384" text-anchor="start" font-size="16">bot</text><text data-pin-name="vss" x="241" y="344" text-anchor="end" font-size="16">vss</text><text data-pin-name="vdd" x="241" y="364" text-anchor="end" font-size="16">vdd</text></g><g data-object-id="XU2" data-symbol-id="hierarchical-symbol-82822626bf0850db"><g transform="translate(220 520) rotate(0)"><g fill="none" stroke="#202020" stroke-width="1.6" stroke-linecap="butt" stroke-linejoin="miter" stroke-miterlimit="4"><polyline points="-25,-35 25,-35 25,35 -25,35 -25,-35"/><line x1="-40" y1="-20" x2="-25" y2="-20"/><line x1="-40" y1="0" x2="-25" y2="0"/><line x1="-40" y1="20" x2="-25" y2="20"/><line x1="40" y1="-20" x2="25" y2="-20"/><line x1="40" y1="0" x2="25" y2="0"/></g></g><text data-pin-name="bit" x="199" y="504" text-anchor="start" font-size="16">bit</text><text data-pin-name="nbit" x="199" y="524" text-anchor="start" font-size="16">nbit</text><text data-pin-name="bot" x="199" y="544" text-anchor="start" font-size="16">bot</text><text data-pin-name="vss" x="241" y="504" text-anchor="end" font-size="16">vss</text><text data-pin-name="vdd" x="241" y="524" text-anchor="end" font-size="16">vdd</text></g><g data-object-id="XU3" data-symbol-id="hierarchical-symbol-82822626bf0850db"><g transform="translate(220 680) rotate(0)"><g fill="none" stroke="#202020" stroke-width="1.6" stroke-linecap="butt" stroke-linejoin="miter" stroke-miterlimit="4"><polyline points="-25,-35 25,-35 25,35 -25,35 -25,-35"/><line x1="-40" y1="-20" x2="-25" y2="-20"/><line x1="-40" y1="0" x2="-25" y2="0"/><line x1="-40" y1="20" x2="-25" y2="20"/><line x1="40" y1="-20" x2="25" y2="-20"/><line x1="40" y1="0" x2="25" y2="0"/></g></g><text data-pin-name="bit" x="199" y="664" text-anchor="start" font-size="16">bit</text><text data-pin-name="nbit" x="199" y="684" text-anchor="start" font-size="16">nbit</text><text data-pin-name="bot" x="199" y="704" text-anchor="start" font-size="16">bot</text><text data-pin-name="vss" x="241" y="664" text-anchor="end" font-size="16">vss</text><text data-pin-name="vdd" x="241" y="684" text-anchor="end" font-size="16">vdd</text></g><g data-object-id="XU4" data-symbol-id="hierarchical-symbol-82822626bf0850db"><g transform="translate(220 840) rotate(0)"><g fill="none" stroke="#202020" stroke-width="1.6" stroke-linecap="butt" stroke-linejoin="miter" stroke-miterlimit="4"><polyline points="-25,-35 25,-35 25,35 -25,35 -25,-35"/><line x1="-40" y1="-20" x2="-25" y2="-20"/><line x1="-40" y1="0" x2="-25" y2="0"/><line x1="-40" y1="20" x2="-25" y2="20"/><line x1="40" y1="-20" x2="25" y2="-20"/><line x1="40" y1="0" x2="25" y2="0"/></g></g><text data-pin-name="bit" x="199" y="824" text-anchor="start" font-size="16">bit</text><text data-pin-name="nbit" x="199" y="844" text-anchor="start" font-size="16">nbit</text><text data-pin-name="bot" x="199" y="864" text-anchor="start" font-size="16">bot</text><text data-pin-name="vss" x="241" y="824" text-anchor="end" font-size="16">vss</text><text data-pin-name="vdd" x="241" y="844" text-anchor="end" font-size="16">vdd</text></g><g data-object-id="XU5" data-symbol-id="hierarchical-symbol-82822626bf0850db"><g transform="translate(220 1000) rotate(0)"><g fill="none" stroke="#202020" stroke-width="1.6" stroke-linecap="butt" stroke-linejoin="miter" stroke-miterlimit="4"><polyline points="-25,-35 25,-35 25,35 -25,35 -25,-35"/><line x1="-40" y1="-20" x2="-25" y2="-20"/><line x1="-40" y1="0" x2="-25" y2="0"/><line x1="-40" y1="20" x2="-25" y2="20"/><line x1="40" y1="-20" x2="25" y2="-20"/><line x1="40" y1="0" x2="25" y2="0"/></g></g><text data-pin-name="bit" x="199" y="984" text-anchor="start" font-size="16">bit</text><text data-pin-name="nbit" x="199" y="1004" text-anchor="start" font-size="16">nbit</text><text data-pin-name="bot" x="199" y="1024" text-anchor="start" font-size="16">bot</text><text data-pin-name="vss" x="241" y="984" text-anchor="end" font-size="16">vss</text><text data-pin-name="vdd" x="241" y="1004" text-anchor="end" font-size="16">vdd</text></g></g><g data-layer="annotations"><text data-object-id="label-C0" data-kind="instance-label" data-attached-object-id="C0" x="520" y="270" text-anchor="middle" transform="rotate(0 520 270)" font-size="16"><tspan data-text-run="base" style="font-style:italic;font-weight:700">C</tspan><tspan data-text-run="subscript" font-size="68%" baseline-shift="-0.3em" style="font-style:italic;font-weight:700">0</tspan></text><text data-object-id="label-C1" data-kind="instance-label" data-attached-object-id="C1" x="520" y="430" text-anchor="middle" transform="rotate(0 520 430)" font-size="16"><tspan data-text-run="base" style="font-style:italic;font-weight:700">C</tspan><tspan data-text-run="subscript" font-size="68%" baseline-shift="-0.3em" style="font-style:italic;font-weight:700">1</tspan></text><text data-object-id="label-C2" data-kind="instance-label" data-attached-object-id="C2" x="520" y="590" text-anchor="middle" transform="rotate(0 520 590)" font-size="16"><tspan data-text-run="base" style="font-style:italic;font-weight:700">C</tspan><tspan data-text-run="subscript" font-size="68%" baseline-shift="-0.3em" style="font-style:italic;font-weight:700">2</tspan></text><text data-object-id="label-C3" data-kind="instance-label" data-attached-object-id="C3" x="520" y="750" text-anchor="middle" transform="rotate(0 520 750)" font-size="16"><tspan data-text-run="base" style="font-style:italic;font-weight:700">C</tspan><tspan data-text-run="subscript" font-size="68%" baseline-shift="-0.3em" style="font-style:italic;font-weight:700">3</tspan></text><text data-object-id="label-C4" data-kind="instance-label" data-attached-object-id="C4" x="520" y="910" text-anchor="middle" transform="rotate(0 520 910)" font-size="16"><tspan data-text-run="base" style="font-style:italic;font-weight:700">C</tspan><tspan data-text-run="subscript" font-size="68%" baseline-shift="-0.3em" style="font-style:italic;font-weight:700">4</tspan></text><text data-object-id="label-C5" data-kind="instance-label" data-attached-object-id="C5" x="520" y="1070" text-anchor="middle" transform="rotate(0 520 1070)" font-size="16"><tspan data-text-run="base" style="font-style:italic;font-weight:700">C</tspan><tspan data-text-run="subscript" font-size="68%" baseline-shift="-0.3em" style="font-style:italic;font-weight:700">5</tspan></text><text data-object-id="label-CDUMMY" data-kind="instance-label" data-attached-object-id="CDUMMY" x="520" y="1230" text-anchor="middle" transform="rotate(0 520 1230)" font-size="16"><tspan data-text-run="base" style="font-style:italic;font-weight:700">CDUMM</tspan><tspan data-text-run="subscript" font-size="68%" baseline-shift="-0.3em" style="font-style:italic;font-weight:700">Y</tspan></text><text data-object-id="label-XRESET" data-kind="instance-label" data-attached-object-id="XRESET" x="780" y="690" text-anchor="middle" transform="rotate(0 780 690)" font-size="16"><tspan data-text-run="base" style="font-style:italic;font-weight:700">XRESE</tspan><tspan data-text-run="subscript" font-size="68%" baseline-shift="-0.3em" style="font-style:italic;font-weight:700">T</tspan></text><text data-object-id="label-XU0" data-kind="instance-label" data-attached-object-id="XU0" x="220" y="250" text-anchor="middle" transform="rotate(0 220 250)" font-size="16"><tspan data-text-run="base" style="font-style:italic;font-weight:700">XU</tspan><tspan data-text-run="subscript" font-size="68%" baseline-shift="-0.3em" style="font-style:italic;font-weight:700">0</tspan></text><text data-object-id="label-XU1" data-kind="instance-label" data-attached-object-id="XU1" x="220" y="410" text-anchor="middle" transform="rotate(0 220 410)" font-size="16"><tspan data-text-run="base" style="font-style:italic;font-weight:700">XU</tspan><tspan data-text-run="subscript" font-size="68%" baseline-shift="-0.3em" style="font-style:italic;font-weight:700">1</tspan></text><text data-object-id="label-XU2" data-kind="instance-label" data-attached-object-id="XU2" x="220" y="570" text-anchor="middle" transform="rotate(0 220 570)" font-size="16"><tspan data-text-run="base" style="font-style:italic;font-weight:700">XU</tspan><tspan data-text-run="subscript" font-size="68%" baseline-shift="-0.3em" style="font-style:italic;font-weight:700">2</tspan></text><text data-object-id="label-XU3" data-kind="instance-label" data-attached-object-id="XU3" x="220" y="730" text-anchor="middle" transform="rotate(0 220 730)" font-size="16"><tspan data-text-run="base" style="font-style:italic;font-weight:700">XU</tspan><tspan data-text-run="subscript" font-size="68%" baseline-shift="-0.3em" style="font-style:italic;font-weight:700">3</tspan></text><text data-object-id="label-XU4" data-kind="instance-label" data-attached-object-id="XU4" x="220" y="890" text-anchor="middle" transform="rotate(0 220 890)" font-size="16"><tspan data-text-run="base" style="font-style:italic;font-weight:700">XU</tspan><tspan data-text-run="subscript" font-size="68%" baseline-shift="-0.3em" style="font-style:italic;font-weight:700">4</tspan></text><text data-object-id="label-XU5" data-kind="instance-label" data-attached-object-id="XU5" x="220" y="1050" text-anchor="middle" transform="rotate(0 220 1050)" font-size="16"><tspan data-text-run="base" style="font-style:italic;font-weight:700">XU</tspan><tspan data-text-run="subscript" font-size="68%" baseline-shift="-0.3em" style="font-style:italic;font-weight:700">5</tspan></text><text data-object-id="route-net-82ef833d9b98cf34-10" data-kind="net-label" data-attached-object-id="vss-j-4" x="320" y="820" text-anchor="middle" transform="rotate(0 320 820)" font-size="16"><tspan data-text-run="base" style="font-style:italic;font-weight:700">V</tspan><tspan data-text-run="subscript" font-size="68%" baseline-shift="-0.3em" style="font-style:italic;font-weight:700">SS</tspan></text><text data-object-id="route-net-82ef833d9b98cf34-12" data-kind="net-label" data-attached-object-id="vss-j-5" x="320" y="980" text-anchor="middle" transform="rotate(0 320 980)" font-size="16"><tspan data-text-run="base" style="font-style:italic;font-weight:700">V</tspan><tspan data-text-run="subscript" font-size="68%" baseline-shift="-0.3em" style="font-style:italic;font-weight:700">SS</tspan></text><text data-object-id="route-net-82ef833d9b98cf34-17" data-kind="net-label" data-attached-object-id="vss-j-reset" x="320" y="660" text-anchor="middle" transform="rotate(0 320 660)" font-size="16"><tspan data-text-run="base" style="font-style:italic;font-weight:700">V</tspan><tspan data-text-run="subscript" font-size="68%" baseline-shift="-0.3em" style="font-style:italic;font-weight:700">SS</tspan></text><text data-object-id="route-net-82ef833d9b98cf34-2" data-kind="net-label" data-attached-object-id="vss-j-0" x="320" y="180" text-anchor="middle" transform="rotate(0 320 180)" font-size="16"><tspan data-text-run="base" style="font-style:italic;font-weight:700">V</tspan><tspan data-text-run="subscript" font-size="68%" baseline-shift="-0.3em" style="font-style:italic;font-weight:700">SS</tspan></text><text data-object-id="route-net-82ef833d9b98cf34-4" data-kind="net-label" data-attached-object-id="vss-j-1" x="320" y="340" text-anchor="middle" transform="rotate(0 320 340)" font-size="16"><tspan data-text-run="base" style="font-style:italic;font-weight:700">V</tspan><tspan data-text-run="subscript" font-size="68%" baseline-shift="-0.3em" style="font-style:italic;font-weight:700">SS</tspan></text><text data-object-id="route-net-82ef833d9b98cf34-6" data-kind="net-label" data-attached-object-id="vss-j-2" x="320" y="500" text-anchor="middle" transform="rotate(0 320 500)" font-size="16"><tspan data-text-run="base" style="font-style:italic;font-weight:700">V</tspan><tspan data-text-run="subscript" font-size="68%" baseline-shift="-0.3em" style="font-style:italic;font-weight:700">SS</tspan></text><text data-object-id="route-net-82ef833d9b98cf34-8" data-kind="net-label" data-attached-object-id="vss-j-3" x="320" y="660" text-anchor="middle" transform="rotate(0 320 660)" font-size="16"><tspan data-text-run="base" style="font-style:italic;font-weight:700">V</tspan><tspan data-text-run="subscript" font-size="68%" baseline-shift="-0.3em" style="font-style:italic;font-weight:700">SS</tspan></text></g></g></svg>
